# xmcd
#
# Track frame offsets:
#	182
#	4617
#	20760
#	35120
#	50082
#	61640
#	81947
#	94945
#	113797
#	127872
#	140372
#	153550
#	167217
#	180937
#
# Disc length: 2604 seconds
#
# Revision: 1
# Processed by: cddbd v1.5.1PL0 Copyright (c) Steve Scherf et al.
# Submitted via: audiograbber 1.83.01
#
DISCID=b20a2a0e
DTITLE=Jimmy Witherspoon - Love Is A Five Letter Word
DYEAR=1998
DGENRE=Blues
TTITLE0=Spoon Tang
TTITLE1=Buried Alive In The Blues
TTITLE2=Aviation Man
TTITLE3=Fool's Paradise
TTITLE4=What's Going Down
TTITLE5=The Other Side Of Love
TTITLE6=Reflection
TTITLE7=No Money Down
TTITLE8=Love Is A Five Letter Word
TTITLE9=Nothing's Changed
TTITLE10=Landlord, Landlord
TTITLE11=I Love You, Yes I Do
TTITLE12=Rollin' Like A Pebble In The Sand
TTITLE13=I Was Lost (But Now I'm Found)
EXTD=
EXTT0=
EXTT1=
EXTT2=
EXTT3=
EXTT4=
EXTT5=
EXTT6=
EXTT7=
EXTT8=
EXTT9=
EXTT10=
EXTT11=
EXTT12=
EXTT13=
PLAYORDER=
